<svg xmlns="http://www.w3.org/2000/svg" viewBox="0 0 64 64" role="img" aria-label="G">
  <rect width="64" height="64" rx="14" fill="#4E8770"/>
  <path transform="translate(32 32) scale(0.058 -0.058) translate(-325.39 -350.0)" fill="#FBF9F5" d="M311.8497314453125 -14Q238.4498291015625 -14 179.68734741210938 18.5Q120.92486572265625 51 86.68734741210938 113.67498779296875Q52.4498291015625 176.3499755859375 52.4498291015625 266.87493896484375V433.12506103515625Q52.4498291015625 569 128.01235961914062 641.5Q203.57489013671875 714 332.3499755859375 714Q460.12506103515625 714 529.2251586914062 645.5874938964844Q598.3252563476562 577.1749877929688 598.3252563476562 460.87493896484375V456.699951171875H479.87445068359375V464.52496337890625Q479.87445068359375 504.67474365234375 463.7619934082031 536.8620910644531Q447.6495361328125 569.0494384765625 414.9871520996094 587.7743530273438Q382.32476806640625 606.499267578125 332.3499755859375 606.499267578125Q257.62530517578125 606.499267578125 215.08798217773438 560.699462890625Q172.5506591796875 514.899658203125 172.5506591796875 435.12506103515625V264.87493896484375Q172.5506591796875 185.92535400390625 215.08798217773438 138.88803100585938Q257.62530517578125 91.8507080078125 334 91.8507080078125Q410.02471923828125 91.8507080078125 445.12457275390625 132.82550048828125Q480.22442626953125 173.80029296875 480.22442626953125 237.92486572265625V249.67474365234375H302.8502197265625V351.87542724609375H598.3252563476562V0H487.52447509765625V69.099853515625H470.57440185546875Q462.699462890625 50.87493896484375 446.0620422363281 31.437469482421875Q429.42462158203125 12 397.6371765136719 -1.0Q365.8497314453125 -14 311.8497314453125 -14Z"/>
</svg>
